<?xml version="1.0" standalone="no"?>
<!DOCTYPE svg PUBLIC "-//W3C//DTD SVG 20010904//EN"
 "http://www.w3.org/TR/2001/REC-SVG-20010904/DTD/svg10.dtd">
<svg version="1.0" xmlns="http://www.w3.org/2000/svg"
 width="128.000000pt" height="128.000000pt" viewBox="0 0 128.000000 128.000000"
 preserveAspectRatio="xMidYMid meet">
<metadata>
Created by potrace 1.12, written by Peter Selinger 2001-2015
</metadata>
<g transform="translate(0.000000,128.000000) scale(0.100000,-0.100000)"
fill="#000000" stroke="none">
<path d="M575 1273 c-16 -3 -34 -9 -39 -14 -6 -5 -22 -9 -36 -9 -15 0 -35 -9
-45 -20 -17 -19 -17 -21 -2 -38 13 -15 15 -25 7 -53 -6 -18 -10 -53 -10 -76 0
-35 -8 -54 -45 -104 -65 -89 -61 -127 9 -81 47 31 66 37 66 21 0 -6 -7 -9 -15
-5 -11 4 -15 -2 -15 -20 0 -14 -16 -55 -36 -90 -36 -64 -39 -94 -9 -94 9 0 23
-16 31 -35 18 -43 42 -55 60 -30 8 10 15 17 16 14 27 -43 46 -89 38 -89 -5 0
-15 9 -22 20 -17 27 -32 25 -57 -7 -12 -14 -23 -24 -24 -22 -2 2 -19 27 -39
54 -48 66 -171 184 -233 224 -71 45 -97 42 -140 -16 -19 -27 -35 -60 -35 -74
0 -56 61 -151 164 -254 106 -106 187 -159 234 -154 15 2 33 0 40 -5 7 -4 16
-5 20 -2 3 4 23 -10 43 -30 32 -31 36 -40 28 -56 -19 -35 30 -117 69 -118 8 0
25 -9 39 -20 14 -11 34 -20 45 -20 10 0 34 -16 54 -35 68 -69 114 -31 114 94
0 98 41 190 70 156 7 -8 26 -15 42 -15 20 0 37 -8 49 -24 10 -13 32 -29 49
-36 28 -12 42 -40 20 -40 -20 0 -60 -49 -60 -74 0 -26 38 -46 89 -46 54 0 68
21 75 117 9 116 6 123 -54 120 -61 -3 -79 12 -56 44 12 18 24 23 51 20 34 -2
35 -1 35 32 0 19 8 45 19 58 47 61 82 163 96 282 5 46 4 57 -8 57 -27 0 -49
-39 -72 -131 -13 -50 -28 -96 -34 -102 -11 -11 -51 47 -51 74 0 9 -7 22 -15
29 -14 11 -14 15 0 37 24 36 16 85 -16 100 -15 7 -32 26 -38 42 -14 33 -90 91
-120 91 -11 0 -32 -12 -46 -27 -14 -15 -25 -26 -26 -23 -1 3 -2 20 -4 38 -2
20 -13 42 -29 57 -14 13 -26 31 -26 40 0 18 -26 20 -33 3 -3 -10 -10 -8 -23 5
-18 16 -17 17 16 17 19 -1 46 -7 60 -15 35 -20 50 -18 50 5 0 27 -37 59 -79
66 -55 10 -66 19 -79 62 -7 22 -19 45 -27 52 -8 7 -15 22 -15 34 0 12 -5 27
-12 34 -12 12 -18 13 -73 5z m-29 -358 c4 -8 3 -23 -1 -32 -8 -17 -8 -17 -12
0 -5 20 -19 23 -26 5 -4 -9 -6 -8 -6 3 -1 16 17 39 31 39 5 0 11 -7 14 -15z
m-281 -331 c73 -73 149 -179 114 -159 -49 29 -104 71 -146 113 -56 54 -133
149 -133 164 0 22 90 -42 165 -118z m378 12 c6 -16 22 -42 36 -59 25 -29 25
-30 7 -61 -10 -17 -29 -51 -43 -76 -20 -38 -29 -45 -57 -47 -36 -2 -68 23 -80
63 -6 18 -3 21 18 17 17 -4 32 3 50 20 33 33 35 91 6 147 -17 34 -18 40 -5 40
8 0 15 6 15 13 0 7 6 19 13 26 10 10 14 6 21 -21 4 -18 13 -46 19 -62z m154
-324 c-8 -20 -18 -45 -21 -55 -5 -16 -8 -17 -35 -2 -17 8 -37 15 -46 15 -27 0
-16 34 18 55 17 10 40 23 49 27 10 4 21 20 25 35 l7 28 9 -33 c8 -24 6 -42 -6
-70z"/>
</g>
</svg>
